<?xml version="1.0" encoding="utf-8"?>
<!-- Generator: Adobe Illustrator 25.0.1, SVG Export Plug-In . SVG Version: 6.00 Build 0)  -->
<svg version="1.0" id="katman_1" xmlns="http://www.w3.org/2000/svg" xmlns:xlink="http://www.w3.org/1999/xlink" x="0px" y="0px"
	 viewBox="0 0 800 600" style="enable-background:new 0 0 800 600;" xml:space="preserve">
<style type="text/css">
	.st0{fill:#0C0C0E;}
</style>
<path class="st0" d="M288.7,304v-1.5c0-3.7-1.3-6.6-3.8-8.6c-2.5-2.1-5.7-3.1-9.7-3.1c-3.1,0-5.5,0.5-7.3,1.6
	c-1.7,1-3.3,2.5-4.9,4.6c-0.5,0.6-1,1-1.5,1.3c-0.5,0.2-1.3,0.3-2.2,0.3h-3.5c-0.8,0-1.6-0.3-2.3-0.9c-0.6-0.6-0.9-1.3-0.8-2.2
	c0.2-2.3,1.4-4.5,3.4-6.7c2.1-2.3,4.8-4.1,8.2-5.6c3.4-1.4,7-2.2,10.9-2.2c7.2,0,13,2,17.4,5.9c4.5,4,6.7,9.5,6.7,16.6v34.8
	c0,0.8-0.3,1.6-0.9,2.2c-0.6,0.6-1.4,0.9-2.2,0.9h-4.3c-0.8,0-1.6-0.3-2.2-0.9c-0.6-0.6-0.9-1.3-0.9-2.2v-4.7
	c-1.2,2.7-3.9,4.9-7.9,6.5c-4,1.6-8,2.4-12,2.4c-3.9,0-7.4-0.7-10.5-2.1c-3.1-1.4-5.5-3.4-7.2-5.8c-1.6-2.4-2.4-5.2-2.4-8.2
	c0-5.7,2.2-10.1,6.5-13.3c4.3-3.3,10.1-5.5,17.3-6.6L288.7,304z M288.7,313.2l-13.7,2.2c-5,0.8-8.9,2-11.7,3.8
	c-2.8,1.7-4.2,3.8-4.2,6.4c0,1.9,0.9,3.6,2.7,5.1c1.8,1.5,4.5,2.3,8.1,2.3c5.6,0,10.1-1.6,13.5-4.7c3.5-3.1,5.2-7.2,5.2-12.2V313.2z
	"/>
<path class="st0" d="M326.7,338.5c0,0.8-0.3,1.6-0.9,2.2c-0.6,0.6-1.4,0.9-2.2,0.9h-4.3c-0.8,0-1.6-0.3-2.2-0.9
	c-0.6-0.6-0.9-1.3-0.9-2.2v-74.8c0-0.8,0.3-1.6,0.9-2.2c0.6-0.6,1.4-0.9,2.2-0.9h4.3c0.8,0,1.6,0.3,2.2,0.9c0.6,0.6,0.9,1.3,0.9,2.2
	V338.5z"/>
<path class="st0" d="M368.4,332.9c7.7,0,12.9-3,15.6-8.9c0.5-1.1,1.1-1.9,1.6-2.4c0.5-0.5,1.3-0.7,2.2-0.7h3.5
	c0.8,0,1.6,0.3,2.2,0.9c0.6,0.5,0.9,1.2,0.9,1.9c0,2.6-1,5.4-3.1,8.3c-2.1,3-5.1,5.5-9,7.5c-3.9,2.1-8.6,3.1-13.9,3.1
	c-5.5,0-10.2-1.1-14.2-3.4c-4-2.3-7.1-5.4-9.3-9.3c-2.2-4-3.4-8.5-3.6-13.5c-0.1-0.9-0.1-2.7-0.1-5.2c0-1.8,0-3.1,0.1-3.9
	c0.7-7.8,3.4-14.1,8-18.9c4.6-4.9,11-7.3,19.1-7.3c5.3,0,9.9,1,13.8,3.1c3.9,2,6.9,4.4,8.9,7.4c2.1,2.9,3.2,5.6,3.4,8.2
	c0.1,0.8-0.2,1.6-0.9,2.2c-0.6,0.6-1.4,0.9-2.2,0.9h-3.5c-0.9,0-1.7-0.2-2.2-0.7c-0.5-0.5-1.1-1.3-1.6-2.4
	c-2.7-5.9-7.9-8.9-15.6-8.9c-4.2,0-8,1.4-11.1,4.2c-3.2,2.8-5,7.1-5.4,12.8c-0.1,0.8-0.1,2.2-0.1,4.1c0,1.7,0,3,0.1,3.9
	c0.5,5.7,2.4,10,5.4,12.8C360.5,331.5,364.2,332.9,368.4,332.9z"/>
<path class="st0" d="M461.8,338.5c0,0.8-0.3,1.6-0.9,2.2c-0.6,0.6-1.4,0.9-2.2,0.9h-4.3c-0.8,0-1.6-0.3-2.2-0.9
	c-0.6-0.6-0.9-1.3-0.9-2.2v-30.1c0-5.7-1.4-10-4.3-13c-2.9-3-6.8-4.4-11.9-4.4c-5,0-9,1.5-11.9,4.4c-2.9,3-4.3,7.3-4.3,13v30.1
	c0,0.8-0.3,1.6-0.9,2.2c-0.6,0.6-1.4,0.9-2.2,0.9h-4.3c-0.8,0-1.6-0.3-2.2-0.9c-0.6-0.6-0.9-1.3-0.9-2.2v-74.8
	c0-0.8,0.3-1.6,0.9-2.2c0.6-0.6,1.4-0.9,2.2-0.9h4.3c0.8,0,1.6,0.3,2.2,0.9s0.9,1.3,0.9,2.2v25.2c1.7-2.2,4-4,6.9-5.5
	c3-1.5,6.7-2.3,11-2.3c4.9,0,9.2,1,13,3.1c3.8,2.1,6.7,5,8.8,8.9c2.2,3.8,3.2,8.3,3.2,13.6V338.5z"/>
<path class="st0" d="M502.4,281.1c8.3,0,14.8,2.6,19.6,7.8c4.8,5.2,7.2,12.2,7.2,21.1v3.1c0,0.8-0.3,1.6-0.9,2.2
	c-0.6,0.6-1.4,0.9-2.2,0.9h-39.8v0.7c0.2,5,1.7,9,4.6,11.9c3,2.8,6.9,4.2,11.6,4.2c3.9,0,6.8-0.5,8.9-1.5c2.2-1,4.1-2.4,5.8-4.2
	c0.6-0.6,1.2-1,1.6-1.3c0.5-0.2,1.2-0.3,2.1-0.3h3.5c0.9,0,1.7,0.3,2.3,0.9c0.6,0.6,0.9,1.3,0.8,2.2c-0.3,2.1-1.5,4.2-3.5,6.4
	c-1.9,2.1-4.7,4-8.5,5.5c-3.6,1.4-8,2.2-13.1,2.2c-4.9,0-9.3-1.1-13.2-3.3c-3.9-2.3-6.9-5.4-9.3-9.3c-2.2-4-3.6-8.4-4.1-13.3
	c-0.2-2.3-0.2-4-0.2-5.2s0.1-3,0.2-5.2c0.5-4.7,1.8-9,4.1-12.8c2.3-3.8,5.4-6.8,9.1-9C492.9,282.2,497.4,281.1,502.4,281.1z
	 M518.7,306.6v-0.3c0-4.6-1.5-8.3-4.5-11.1c-2.9-2.8-6.9-4.2-11.8-4.2c-4.5,0-8.3,1.4-11.5,4.2c-3.1,2.8-4.7,6.5-4.7,11.1v0.3H518.7
	z"/>
<path class="st0" d="M553.6,288.9c1.9-2.4,3.9-4.2,6.3-5.6c2.3-1.4,5.4-2.2,9.3-2.2c9,0,15.4,3.3,19,9.9c2.2-3.2,4.8-5.6,7.6-7.3
	c2.9-1.7,6.6-2.6,11.2-2.6c7.6,0,13.2,2.2,16.8,6.7c3.7,4.5,5.6,10.8,5.6,19v31.6c0,0.8-0.3,1.6-0.9,2.2c-0.6,0.6-1.4,0.9-2.2,0.9
	h-4.3c-0.8,0-1.6-0.3-2.2-0.9c-0.6-0.6-0.9-1.3-0.9-2.2V308c0-11.4-4.6-17.1-13.7-17.1c-4.2,0-7.5,1.4-10,4.1
	c-2.5,2.7-3.7,6.8-3.7,12.2v31.2c0,0.8-0.3,1.6-0.9,2.2c-0.6,0.6-1.4,0.9-2.2,0.9h-4.3c-0.8,0-1.6-0.3-2.2-0.9
	c-0.6-0.6-0.9-1.3-0.9-2.2V308c0-11.4-4.6-17.1-13.7-17.1c-4.2,0-7.5,1.4-10,4.1c-2.5,2.7-3.7,6.8-3.7,12.2v31.2
	c0,0.8-0.3,1.6-0.9,2.2c-0.6,0.6-1.4,0.9-2.2,0.9h-4.3c-0.8,0-1.6-0.3-2.2-0.9c-0.6-0.6-0.9-1.3-0.9-2.2v-53.1
	c0-0.8,0.3-1.6,0.9-2.2c0.6-0.6,1.4-0.9,2.2-0.9h4.3c0.8,0,1.6,0.3,2.2,0.9c0.6,0.6,0.9,1.3,0.9,2.2V288.9z"/>
<path class="st0" d="M661.8,360.5c-0.7,1.8-1.8,2.7-3.4,2.7h-4.7c-0.8,0-1.4-0.3-2-0.8c-0.5-0.5-0.8-1.2-0.8-1.9
	c0-0.3,0-0.6,0.1-0.8l11.1-23.8l-22.9-50.1c-0.1-0.2-0.1-0.5-0.1-0.8c0-0.8,0.3-1.4,0.8-1.9s1.2-0.8,2-0.8h4.7
	c1.5,0,2.7,0.9,3.4,2.7l17.8,38.8l18.1-38.8c0.7-1.8,1.8-2.7,3.4-2.7h4.7c0.8,0,1.4,0.3,2,0.8c0.5,0.5,0.8,1.2,0.8,1.9
	c0,0.3,0,0.6-0.1,0.8L661.8,360.5z"/>
<path class="st0" d="M204.9,303.8l-38.9-66c-0.2-0.3-0.5-0.6-0.8-0.8c-0.3-0.2-0.7-0.3-1.1-0.3c-0.4,0-0.8,0.1-1.1,0.3
	c-0.3,0.2-0.6,0.5-0.8,0.8l-11.6,19.8c-0.4,0.6-0.6,1.4-0.6,2.1s0.2,1.5,0.6,2.1l25.4,43.1c0.4,0.6,0.9,1.2,1.6,1.6
	c0.7,0.4,1.4,0.6,2.2,0.6H203c0.4,0,0.8-0.1,1.1-0.3c0.3-0.2,0.6-0.5,0.8-0.8c0.2-0.3,0.3-0.7,0.3-1.1
	C205.2,304.5,205.1,304.2,204.9,303.8z"/>
<path class="st0" d="M103,338.3l38.9-66c0.2-0.3,0.5-0.6,0.8-0.8c0.3-0.2,0.7-0.3,1.1-0.3c0.4,0,0.8,0.1,1.1,0.3
	c0.3,0.2,0.6,0.5,0.8,0.8l11.6,19.8c0.4,0.6,0.6,1.4,0.6,2.1s-0.2,1.5-0.6,2.1l-25.4,43.1c-0.4,0.6-0.9,1.2-1.6,1.6
	c-0.7,0.4-1.4,0.6-2.2,0.6h-23.3c-0.4,0-0.8-0.1-1.1-0.3c-0.3-0.2-0.6-0.5-0.8-0.8c-0.2-0.3-0.3-0.7-0.3-1.1
	C102.7,339,102.8,338.7,103,338.3z"/>
<path class="st0" d="M145.6,341.5h77.8c0.4,0,0.8-0.1,1.1-0.3c0.3-0.2,0.6-0.5,0.8-0.8c0.2-0.3,0.3-0.7,0.3-1.1
	c0-0.4-0.1-0.7-0.3-1.1l-11.6-19.8c-0.4-0.6-0.9-1.2-1.6-1.6c-0.7-0.4-1.4-0.6-2.2-0.6h-50.7c-0.8,0-1.5,0.2-2.2,0.6
	c-0.7,0.4-1.2,0.9-1.6,1.6l-11.6,19.8c-0.2,0.3-0.3,0.7-0.3,1.1c0,0.4,0.1,0.7,0.3,1.1c0.2,0.3,0.5,0.6,0.8,0.8
	C144.9,341.4,145.3,341.5,145.6,341.5z"/>
</svg>
